<?xml version="1.0" standalone="no"?>
<!DOCTYPE svg PUBLIC "-//W3C//DTD SVG 20010904//EN"
 "http://www.w3.org/TR/2001/REC-SVG-20010904/DTD/svg10.dtd">
<svg version="1.0" xmlns="http://www.w3.org/2000/svg"
 width="295.000000pt" height="413.000000pt" viewBox="0 0 295.000000 413.000000"
 preserveAspectRatio="xMidYMid meet">

<g transform="translate(0.000000,413.000000) scale(0.100000,-0.100000)"
fill="#000000" stroke="none">
<path d="M1285 3850 c-10 -11 -29 -20 -42 -20 -14 0 -26 -7 -29 -17 -3 -10
-11 -28 -17 -40 -7 -16 -7 -30 1 -47 10 -22 8 -24 -26 -30 -25 -4 -41 -1 -52
9 -24 22 -33 19 -54 -20 -14 -26 -22 -32 -32 -24 -17 14 -100 8 -124 -8 -25
-17 -26 -34 -2 -27 14 5 15 4 2 -5 -24 -17 -43 -13 -36 7 4 12 0 10 -14 -7
-20 -23 -28 -57 -11 -47 11 7 8 -8 -7 -45 -13 -32 -42 -46 -57 -26 -9 12 -12
12 -25 -2 -8 -8 -14 -20 -12 -25 2 -5 -7 -19 -18 -31 -18 -19 -20 -27 -11 -44
11 -20 8 -26 -14 -21 -5 1 0 -9 13 -23 16 -17 20 -27 12 -32 -7 -5 -11 -40
-10 -104 1 -53 -1 -135 -5 -182 -7 -86 9 -453 22 -485 5 -13 3 -15 -7 -9 -10
6 -12 -1 -6 -36 9 -56 34 -98 47 -78 6 10 9 6 9 -13 0 -15 4 -30 10 -33 6 -4
8 9 4 32 -22 167 -19 422 5 445 11 11 13 3 8 -44 -3 -32 -1 -60 4 -63 5 -4 5
-13 -1 -25 -5 -10 -8 -41 -6 -69 2 -28 0 -51 -5 -51 -5 0 -6 -7 -3 -15 4 -8
14 -15 24 -15 18 0 54 33 45 42 -3 3 2 11 10 18 14 11 20 9 46 -19 19 -21 28
-40 24 -50 -5 -16 1 -18 62 -14 38 2 90 9 118 15 56 13 135 45 135 56 0 4 12
9 26 10 24 2 26 -1 22 -33 -5 -41 3 -44 30 -10 50 63 54 156 8 192 -18 15 -22
26 -19 58 4 36 2 38 -10 23 -8 -10 -17 -15 -20 -11 -11 10 -8 25 3 18 17 -11
10 9 -13 37 -24 30 -82 44 -104 26 -7 -6 -26 -8 -43 -6 -16 3 -30 1 -30 -4 0
-5 -18 -6 -39 -3 -35 5 -45 1 -104 -44 -56 -42 -68 -47 -78 -35 -10 12 -9 13
4 8 12 -4 15 0 13 20 -1 14 -6 29 -9 33 -13 12 -7 22 11 17 16 -5 16 -5 -1 6
-12 8 -15 18 -11 35 4 17 0 26 -15 35 -12 6 -21 15 -21 21 0 6 4 8 8 5 11 -6
42 30 34 39 -4 4 0 5 8 3 8 -2 21 10 30 27 14 27 50 45 50 25 0 -4 11 -10 25
-12 14 -3 25 -1 25 3 0 5 -4 9 -10 9 -5 0 -10 11 -10 24 0 14 -4 28 -10 31 -5
3 -10 13 -10 22 0 12 3 13 15 3 12 -10 15 -7 21 15 3 14 4 42 1 60 -3 19 -1
37 4 41 5 3 7 9 4 13 -2 5 6 13 20 19 14 7 25 7 27 1 2 -5 14 1 28 14 14 13
40 29 58 35 35 12 62 34 62 51 0 5 9 13 20 16 11 4 17 11 14 17 -5 8 12 9 57
4 77 -8 73 -8 131 -2 26 2 56 9 67 15 33 18 108 10 96 -10 -6 -9 39 -23 68
-21 10 0 21 -6 24 -14 3 -8 11 -14 19 -14 8 0 14 -6 14 -14 0 -8 23 -30 50
-50 30 -22 48 -41 44 -48 -4 -6 -3 -8 2 -5 5 3 25 -17 44 -43 19 -27 41 -49
48 -50 18 0 15 -20 -4 -20 -13 0 -12 -5 5 -34 12 -18 21 -41 21 -50 0 -9 5
-16 10 -16 14 0 12 38 -2 43 -7 2 -9 8 -5 13 10 11 27 -15 27 -43 0 -12 12
-34 28 -50 15 -15 33 -40 41 -55 17 -33 34 -27 21 7 -6 16 -6 25 0 25 10 0 15
-27 11 -67 -2 -24 14 -32 22 -10 3 6 6 2 6 -10 1 -12 13 -35 27 -52 14 -17 23
-31 20 -31 -4 0 -2 -9 4 -20 6 -11 13 -37 16 -58 2 -20 7 -50 10 -66 4 -20 3
-27 -7 -24 -13 4 -17 24 -20 97 -3 56 -16 27 -21 -47 -2 -27 -10 -57 -16 -65
-10 -11 -10 -17 -2 -22 8 -5 9 -20 5 -42 -7 -37 11 -97 26 -87 5 3 6 -2 3 -11
-4 -9 -1 -27 6 -40 7 -13 10 -33 7 -44 -3 -12 -1 -19 4 -15 5 3 9 0 9 -5 0 -6
-5 -11 -10 -11 -10 0 -8 -30 5 -62 5 -11 3 -18 -5 -18 -7 0 -10 -7 -6 -16 3
-8 -1 -22 -9 -30 -8 -9 -15 -31 -15 -49 0 -28 -3 -33 -16 -28 -12 4 -15 2 -12
-8 3 -8 11 -13 17 -11 6 1 11 -10 11 -26 0 -15 5 -33 11 -39 9 -9 7 -11 -8 -7
-17 5 -19 1 -17 -30 2 -26 -1 -36 -11 -36 -8 0 -15 -5 -15 -11 0 -5 5 -7 10
-4 6 3 10 -4 10 -16 0 -16 -5 -20 -20 -16 -15 4 -20 0 -20 -17 0 -25 -38 -62
-59 -58 -9 2 -12 -2 -8 -12 8 -19 -14 -21 -31 -4 -9 9 -12 8 -12 -5 0 -9 -5
-17 -11 -17 -6 0 -8 -7 -5 -16 5 -13 4 -14 -7 -6 -10 8 -17 8 -24 1 -7 -7 -13
-8 -17 0 -4 5 -14 7 -23 4 -11 -4 -14 -3 -9 5 4 7 1 12 -8 12 -9 0 -16 -5 -16
-11 0 -8 -4 -8 -14 0 -12 10 -14 8 -9 -11 4 -18 3 -20 -6 -8 -9 13 -11 12 -11
-4 0 -10 -8 -25 -17 -33 -10 -8 -12 -12 -5 -8 7 4 12 0 12 -9 0 -9 -7 -16 -16
-16 -14 0 -14 -3 -4 -15 10 -12 9 -15 -4 -15 -10 0 -15 -3 -12 -8 9 -15 -23
-45 -44 -39 -14 4 -20 0 -20 -11 0 -13 -2 -14 -9 -4 -6 10 -10 10 -20 -2 -14
-16 -45 -10 -34 7 4 6 1 7 -6 3 -7 -5 -10 -13 -8 -20 3 -8 -11 -11 -44 -11
-27 0 -49 4 -49 9 0 6 -6 2 -13 -8 -13 -18 -14 -18 -20 -1 -4 9 -13 15 -21 12
-9 -4 -20 6 -30 26 -14 29 -16 30 -16 8 0 -20 -2 -21 -15 -11 -8 7 -15 8 -15
2 0 -16 -42 -22 -59 -9 -12 9 -13 9 -7 0 4 -8 1 -13 -8 -13 -9 0 -16 8 -16 18
0 13 -2 14 -9 3 -5 -8 -14 -10 -21 -6 -9 5 -11 4 -6 -3 4 -7 0 -12 -10 -12 -9
0 -22 -8 -29 -17 -12 -16 -14 -16 -30 0 -9 10 -20 15 -25 12 -9 -6 -24 24 -21
44 1 7 -7 20 -19 28 -14 10 -20 22 -17 34 3 13 0 19 -10 19 -13 0 -13 2 -2 16
11 14 11 18 -3 28 -14 11 -15 13 -2 22 12 7 8 9 -16 10 -18 1 -36 7 -41 15 -8
12 -11 12 -19 -1 -9 -13 -10 -13 -11 0 0 10 -3 8 -9 -5 -7 -18 -8 -18 -15 7
-4 16 -11 25 -16 22 -5 -3 -9 9 -9 27 0 27 -2 30 -15 19 -13 -11 -14 -10 -10
3 4 8 2 18 -4 22 -10 6 -16 -8 -12 -29 1 -5 -1 -16 -4 -24 -4 -12 -9 -9 -21
13 -10 20 -11 31 -4 35 7 5 6 11 -5 20 -13 10 -15 10 -15 -6 0 -16 -2 -16 -16
4 -8 12 -22 22 -31 22 -14 0 -14 -3 2 -20 16 -17 16 -20 3 -15 -25 10 -31 36
-11 50 16 12 15 13 -9 8 -20 -4 -27 0 -31 14 -3 10 -3 -4 -1 -32 8 -83 41
-191 87 -282 19 -39 19 -45 5 -60 -39 -45 -163 -168 -265 -265 -131 -124 -170
-143 -450 -223 l-173 -49 0 -583 0 -583 491 0 491 0 -6 27 c-13 61 -65 474
-110 873 -19 164 -15 657 5 725 l15 50 7 -40 c6 -39 50 -116 65 -114 4 1 14 1
22 0 12 -1 12 -3 2 -10 -20 -12 90 -146 141 -172 21 -11 88 -38 148 -60 191
-68 324 -70 504 -8 180 61 411 333 351 414 -13 18 -10 27 25 91 40 73 69 152
69 192 0 12 6 22 13 22 26 0 37 21 22 44 -10 16 -12 43 -6 116 4 52 4 107 0
121 -8 29 3 55 19 45 9 -6 24 58 38 163 6 49 5 53 -11 47 -14 -5 -16 -2 -10
16 8 24 24 326 27 503 1 99 1 101 -41 185 l-42 85 23 47 c13 28 28 46 36 43
28 -10 0 40 -42 74 -17 14 -41 36 -53 48 -18 17 -23 19 -23 6 0 -12 -6 -14
-27 -8 -37 9 -39 12 -25 35 17 27 15 43 -3 36 -10 -4 -19 2 -25 17 l-9 22 0
-22 c-1 -33 -21 -38 -27 -6 -10 50 -62 96 -119 105 -16 3 -38 9 -48 13 -13 5
-16 3 -11 -8 9 -25 -16 -31 -34 -7 -35 46 -96 112 -115 122 -21 11 -17 -1 11
-35 14 -16 13 -16 -16 -6 -18 6 -32 14 -32 18 0 4 -23 8 -50 10 -38 1 -52 -2
-56 -14 -9 -22 -38 -19 -60 6 -30 34 -95 58 -122 46 -16 -8 -26 -7 -34 1 -19
19 -63 14 -83 -8z m-195 -187 c0 -10 -4 -24 -9 -31 -7 -11 -9 -11 -14 2 -7 19
1 46 14 46 5 0 9 -8 9 -17z m-76 -27 c-3 -9 -12 -12 -22 -9 -15 6 -9 11 25 22
1 1 0 -5 -3 -13z m-39 -16 c3 -6 -1 -7 -9 -4 -18 7 -21 14 -7 14 6 0 13 -4 16
-10z m1052 -12 c-3 -8 -6 -5 -6 6 -1 11 2 17 5 13 3 -3 4 -12 1 -19z m-1095
-22 c6 4 9 1 6 -6 -8 -24 -28 -23 -27 2 0 13 3 17 6 10 2 -6 9 -9 15 -6z m74
-23 c-10 -10 -19 5 -10 18 6 11 8 11 12 0 2 -7 1 -15 -2 -18z m34 17 c0 -5 -2
-10 -4 -10 -3 0 -8 5 -11 10 -3 6 -1 10 4 10 6 0 11 -4 11 -10z m189 -112
c-23 -42 -37 -51 -54 -34 -14 13 -13 16 7 28 13 7 26 11 31 10 4 -1 7 3 7 8 0
6 5 10 10 10 7 0 6 -8 -1 -22z m-299 -280 c21 -3 19 -5 -11 -9 -29 -4 -36 -2
-34 11 2 8 4 17 4 20 1 3 5 0 9 -6 4 -7 18 -14 32 -16z m1045 12 c3 -5 1 -10
-4 -10 -6 0 -11 5 -11 10 0 6 2 10 4 10 3 0 8 -4 11 -10z m-1095 -115 c0 -8
-7 -15 -16 -15 -14 0 -14 3 -4 15 7 8 14 15 16 15 2 0 4 -7 4 -15z m335 -311
c9 -9 13 -20 8 -24 -4 -5 -50 -11 -100 -14 -88 -5 -93 -4 -93 14 0 19 10 24
37 21 6 -1 14 3 18 9 10 17 111 12 130 -6z m980 -143 c-2 -20 -5 -58 -6 -86
l-2 -50 -6 42 c-4 23 -13 48 -20 57 -11 13 -11 17 2 22 15 5 15 8 1 30 -9 13
-13 31 -10 40 6 15 8 15 26 -1 14 -12 18 -27 15 -54z m-960 29 c3 -5 -1 -10
-9 -10 -9 0 -16 5 -16 10 0 6 4 10 9 10 6 0 13 -4 16 -10z m-38 -42 c-29 -10
-62 -4 -53 10 3 4 22 6 43 4 l38 -5 -28 -9z m1069 -195 c-10 -10 -19 5 -10 18
6 11 8 11 12 0 2 -7 1 -15 -2 -18z m-69 -125 c-3 -8 -6 -5 -6 6 -1 11 2 17 5
13 3 -3 4 -12 1 -19z m-1077 -448 c0 -5 -4 -10 -10 -10 -5 0 -10 5 -10 10 0 6
5 10 10 10 6 0 10 -4 10 -10z m190 -170 c13 -8 13 -10 -2 -10 -9 0 -20 5 -23
10 -8 13 5 13 25 0z m-237 -232 c17 -12 57 -35 88 -50 66 -32 88 -53 71 -70
-15 -15 -101 29 -112 57 -5 11 -9 17 -9 13 -1 -4 -13 4 -27 17 -15 14 -30 23
-34 20 -4 -3 -10 4 -13 15 -7 25 -2 25 36 -2z m227 -140 c0 -4 -6 -8 -14 -8
-27 0 -45 12 -40 25 5 11 11 11 30 3 13 -6 24 -15 24 -20z m105 -2 c11 0 64 3
118 7 63 5 97 4 97 -3 0 -5 -6 -10 -12 -10 -10 0 -10 -2 0 -9 10 -6 6 -12 -14
-26 -39 -25 -159 -16 -234 18 -47 22 -51 26 -30 30 14 2 32 2 40 -1 8 -3 24
-5 35 -6z"/>
<path d="M2030 3671 c0 -5 5 -13 10 -16 6 -3 10 -2 10 4 0 5 -4 13 -10 16 -5
3 -10 2 -10 -4z"/>
<path d="M1851 3264 c0 -11 3 -14 6 -6 3 7 2 16 -1 19 -3 4 -6 -2 -5 -13z"/>
<path d="M1060 3260 c0 -5 5 -10 11 -10 5 0 7 5 4 10 -3 6 -8 10 -11 10 -2 0
-4 -4 -4 -10z"/>
<path d="M973 3093 c-7 -3 -12 -14 -12 -26 1 -19 2 -20 6 -3 4 15 7 16 13 5
12 -18 24 -5 13 14 -4 8 -14 12 -20 10z"/>
<path d="M1010 3040 c0 -5 7 -10 15 -10 8 0 15 5 15 10 0 6 -7 10 -15 10 -8 0
-15 -4 -15 -10z"/>
<path d="M1568 2923 c-3 -26 -5 -73 -7 -116 0 -21 -5 -36 -10 -33 -14 9 -34
-90 -26 -132 4 -20 10 -31 12 -24 4 10 9 10 23 -3 15 -14 25 -15 47 -7 25 9
26 11 6 11 -13 1 -23 5 -23 10 0 4 11 6 25 3 14 -2 25 -8 25 -12 0 -5 10 -12
22 -16 13 -4 28 -14 35 -23 21 -29 273 -15 273 15 0 7 10 14 21 16 12 2 30 18
40 36 9 19 25 39 35 46 17 13 16 14 -5 25 -14 8 -20 18 -17 28 4 8 2 32 -4 52
-8 29 -23 46 -72 81 -61 43 -64 44 -153 47 -49 2 -97 4 -105 5 -42 4 -60 -4
-75 -32 -16 -30 -42 -43 -31 -15 3 8 1 15 -4 15 -6 0 -10 9 -10 20 0 25 -19
27 -22 3z m19 -65 c-3 -8 -6 -5 -6 6 -1 11 2 17 5 13 3 -3 4 -12 1 -19z m281
-48 c17 0 32 -4 32 -9 0 -5 -10 -7 -22 -4 -20 4 -21 3 -7 -9 8 -7 18 -20 21
-28 8 -22 -169 -15 -194 7 -10 9 -18 20 -18 24 0 12 81 28 120 23 19 -2 50 -4
68 -4z m-88 -78 c0 -5 -7 -9 -15 -9 -8 0 -15 4 -15 9 0 4 7 8 15 8 8 0 15 -4
15 -8z m-190 -73 c0 -6 -4 -7 -10 -4 -5 3 -10 11 -10 16 0 6 5 7 10 4 6 -3 10
-11 10 -16z m120 1 c0 -22 -1 -23 -24 -14 -13 5 -14 9 -5 20 16 20 29 17 29
-6z m142 -12 c-7 -7 -12 -8 -12 -2 0 14 12 26 19 19 2 -3 -1 -11 -7 -17z m-68
-33 c19 -14 18 -15 -12 -15 -30 0 -40 9 -25 23 9 10 15 8 37 -8z m-44 -35 c18
-12 2 -12 -25 0 -13 6 -15 9 -5 9 8 0 22 -4 30 -9z"/>
<path d="M2099 2938 c-1 -5 -3 -12 -4 -18 -1 -5 -3 -18 -4 -27 -1 -14 -3 -15
-10 -4 -6 10 -12 5 -22 -17 -7 -17 -17 -28 -21 -26 -4 3 -5 -2 -2 -10 3 -9 10
-16 16 -16 5 0 7 4 3 9 -8 14 9 21 25 11 7 -5 22 -3 34 3 12 7 22 12 24 13 1
1 -7 21 -18 45 -11 24 -20 41 -21 37z"/>
<path d="M2066 2815 c-9 -26 -7 -32 5 -12 6 10 9 21 6 23 -2 3 -7 -2 -11 -11z"/>
<path d="M2110 2774 c0 -14 4 -23 10 -19 6 3 10 15 10 26 0 10 -4 19 -10 19
-5 0 -10 -12 -10 -26z"/>
<path d="M1311 2464 c0 -11 3 -14 6 -6 3 7 2 16 -1 19 -3 4 -6 -2 -5 -13z"/>
<path d="M801 2363 c-5 -10 -11 -67 -14 -128 -4 -65 -2 -96 2 -75 5 19 9 29
10 21 0 -7 7 -11 16 -7 10 4 15 -1 15 -14 0 -11 6 -20 13 -20 8 0 7 -4 -3 -10
-13 -9 -13 -10 0 -10 31 0 38 13 24 50 l-12 35 -2 -30 -2 -30 -8 28 c-5 16
-13 34 -18 40 -5 7 -8 28 -7 47 1 19 -1 37 -6 40 -4 3 -4 22 0 43 10 40 7 47
-8 20z"/>
<path d="M1638 2338 c-9 -21 -44 -23 -99 -7 -30 9 -42 9 -53 0 -19 -16 -116
-27 -125 -14 -10 16 -49 25 -56 13 -3 -5 -24 -10 -47 -10 -37 0 -40 -2 -34
-22 3 -13 6 -33 6 -46 0 -13 4 -20 10 -17 6 3 10 2 10 -4 0 -9 -56 -27 -72
-23 -4 1 -13 -8 -19 -20 -14 -26 -25 -38 -59 -61 -13 -9 -19 -17 -13 -17 13 0
6 -31 -10 -41 -5 -3 -2 -9 7 -12 10 -4 16 -1 16 7 0 8 7 16 15 20 18 6 21 -29
4 -39 -6 -4 -8 -13 -5 -20 3 -8 0 -16 -7 -19 -7 -2 -4 -5 7 -5 12 -1 16 -6 12
-16 -4 -12 0 -14 18 -9 13 3 29 0 37 -8 8 -7 41 -26 74 -42 56 -28 67 -29 177
-28 97 1 124 5 155 21 58 31 76 48 69 66 -6 18 28 35 82 40 28 3 33 1 27 -13
-5 -13 -2 -12 13 3 21 21 20 35 -3 35 -7 0 -15 7 -19 15 -3 8 -14 15 -25 15
-12 0 -53 15 -93 34 -40 18 -86 36 -102 40 -37 9 -96 -11 -96 -32 0 -13 -4
-11 -20 6 -12 12 -30 23 -40 23 -11 1 -26 2 -32 3 -16 2 -92 -22 -127 -40 -23
-12 -27 -11 -43 14 -10 15 -13 29 -8 30 6 2 10 10 10 18 0 8 9 14 20 14 11 0
20 -5 20 -11 0 -5 -5 -7 -12 -3 -7 4 -8 3 -4 -4 4 -7 1 -12 -8 -12 -9 0 -16
-8 -15 -17 0 -11 3 -13 6 -5 2 6 14 12 26 12 11 0 17 3 14 7 -8 7 21 43 35 43
5 0 6 -6 3 -12 -4 -7 1 -4 9 6 9 11 16 23 16 28 0 4 7 8 15 8 8 0 15 -4 15
-10 0 -18 20 -11 21 8 0 10 3 12 6 4 2 -6 8 -10 13 -7 4 3 29 1 54 -4 26 -5
46 -5 46 0 0 5 7 9 15 9 8 0 24 6 35 12 16 10 23 10 36 -4 16 -15 19 -15 41
-1 21 14 26 14 34 2 7 -12 9 -11 9 3 0 9 5 18 11 20 6 2 9 23 7 48 -2 30 -5
39 -10 28z m-41 -269 c7 -1 9 -7 6 -12 -3 -5 1 -13 8 -18 11 -6 8 -9 -8 -9
-12 0 -24 4 -28 10 -3 5 -14 2 -24 -8 -49 -46 -65 -52 -129 -52 -62 0 -66 2
-104 40 -22 22 -45 41 -52 41 -6 1 3 4 19 8 27 6 282 6 312 0z"/>
<path d="M1642 2203 c2 -9 8 -18 15 -20 7 -3 9 3 6 16 -6 25 -26 28 -21 4z"/>
<path d="M1703 2195 c4 -8 2 -17 -3 -20 -5 -3 -2 -14 7 -25 11 -13 19 -16 24
-9 4 8 11 5 18 -7 11 -18 12 -18 9 1 -2 12 -12 21 -26 23 -12 2 -22 7 -22 12
0 5 6 8 13 6 6 -1 9 -1 4 1 -4 3 -5 8 -2 13 3 4 -2 11 -11 14 -12 4 -15 2 -11
-9z"/>
<path d="M1400 2178 c0 -10 57 -10 64 0 2 4 -11 7 -30 7 -19 0 -34 -3 -34 -7z"/>
<path d="M2120 2171 c0 -6 5 -13 10 -16 6 -3 10 1 10 9 0 9 -4 16 -10 16 -5 0
-10 -4 -10 -9z"/>
<path d="M1780 2115 c11 -13 10 -15 -4 -9 -9 3 -16 2 -16 -3 0 -5 11 -10 25
-11 14 -1 25 2 25 6 0 12 -14 27 -29 30 -12 3 -12 0 -1 -13z"/>
<path d="M865 2100 c-3 -5 -1 -10 4 -10 6 0 11 5 11 10 0 6 -2 10 -4 10 -3 0
-8 -4 -11 -10z"/>
<path d="M925 2099 c-10 -15 3 -25 16 -12 7 7 7 13 1 17 -6 3 -14 1 -17 -5z"/>
<path d="M884 2064 c3 -9 6 -18 6 -20 0 -2 7 -4 15 -4 8 0 15 -4 15 -10 0 -5
7 -10 15 -10 21 0 19 5 -10 35 -29 28 -50 33 -41 9z"/>
<path d="M1780 1890 c0 -5 5 -10 11 -10 5 0 7 5 4 10 -3 6 -8 10 -11 10 -2 0
-4 -4 -4 -10z"/>
<path d="M2156 1608 c4 -18 6 -91 5 -163 -3 -127 -3 -164 -2 -235 1 -19 -1
-48 -5 -64 -4 -20 -3 -26 5 -21 9 5 10 -7 6 -42 -3 -26 -10 -118 -15 -203 -13
-195 -33 -375 -73 -657 l-32 -223 452 0 453 0 -2 617 -3 616 -55 19 c-30 10
-109 32 -175 48 -156 38 -260 74 -300 104 -18 14 -64 54 -102 89 -39 36 -74
66 -79 68 -5 2 -22 21 -37 42 -35 46 -51 48 -41 5z"/>
<path d="M1343 990 c-43 -27 -90 -59 -105 -72 -27 -24 -118 -134 -118 -143 0
-3 12 -2 26 1 22 6 35 -2 86 -52 33 -33 63 -66 68 -75 6 -10 4 -48 -5 -100
-16 -92 -55 -457 -55 -514 l0 -35 270 0 c258 0 270 1 270 19 0 71 -65 321
-112 431 -11 25 -22 70 -24 101 -4 49 0 61 31 114 19 32 44 66 55 75 23 20 85
35 101 24 18 -11 -6 26 -64 96 -29 36 -85 88 -125 117 -64 46 -76 51 -102 43
-37 -11 -117 -11 -100 0 9 5 8 9 -3 13 -8 3 -50 -16 -94 -43z"/>
</g>
</svg>
